<?xml version="1.0" encoding="UTF-8"?>
<svg version="1.1" xmlns="http://www.w3.org/2000/svg" width="72" height="37">
<path d="M0 0 C0.99386719 0.02707031 1.98773438 0.05414062 3.01171875 0.08203125 C3.77097656 0.11683594 4.53023437 0.15164063 5.3125 0.1875 C6.15098804 1.64287568 6.98313934 3.10190373 7.8125 4.5625 C8.2765625 5.37460938 8.740625 6.18671875 9.21875 7.0234375 C10.3125 9.1875 10.3125 9.1875 10.3125 11.1875 C11.14394531 11.12949219 11.97539063 11.07148438 12.83203125 11.01171875 C13.91871094 10.96660156 15.00539062 10.92148438 16.125 10.875 C17.20394531 10.81699219 18.28289062 10.75898438 19.39453125 10.69921875 C22.3125 11.1875 22.3125 11.1875 24.1640625 13.2421875 C26.42502559 19.04071188 26.11857122 25.111988 25.3125 31.1875 C23.89114212 34.26971196 22.40324973 35.79568247 19.3125 37.1875 C16.40646219 37.98623554 14.20724179 38.05532813 11.3125 37.1875 C7.57897252 34.23179074 7.57897252 34.23179074 6.3125 31.1875 C5.92524949 27.80785919 6.01157709 24.57121098 6.3125 21.1875 C4.0025 21.8475 1.6925 22.5075 -0.6875 23.1875 C-0.0275 24.1775 0.6325 25.1675 1.3125 26.1875 C1.54296875 28.37890625 1.54296875 28.37890625 1.5 30.75 C1.49355469 31.53503906 1.48710938 32.32007813 1.48046875 33.12890625 C1.3125 35.1875 1.3125 35.1875 0.3125 37.1875 C-6.94903846 37.80288462 -6.94903846 37.80288462 -10.6875 34.6875 C-11.3475 33.8625 -12.0075 33.0375 -12.6875 32.1875 C-16.23268884 33.58509905 -16.23268884 33.58509905 -19.6875 35.1875 C-29.0750584 35.89533815 -37.78540815 36.00911737 -45.39453125 29.79296875 C-47.28828728 27.44150733 -47.15933951 25.12171804 -47.03515625 22.1953125 C-46.46547468 18.90524142 -45.20940705 17.3112112 -42.6875 15.1875 C-39.5625 14.6875 -39.5625 14.6875 -36.6875 15.1875 C-34.39116176 18.63200737 -34.14733515 21.12562283 -33.6875 25.1875 C-31.35584966 25.52248301 -31.35584966 25.52248301 -28.6875 25.1875 C-27.33249081 23.87620078 -26.00078657 22.54058313 -24.6875 21.1875 C-23.800625 20.919375 -22.91375 20.65125 -22 20.375 C-17.11479725 18.6237009 -13.15389605 16.07895095 -9.6875 12.1875 C-8.96623312 9.73030266 -8.80251191 7.7548993 -8.8828125 5.203125 C-8.6875 3.1875 -8.6875 3.1875 -7.53515625 1.43359375 C-4.95348941 -0.30753039 -3.08114671 -0.10874635 0 0 Z " fill="#D8C9B2" transform="translate(46.6875,-0.1875)"/>
</svg>
